HIERARCHY
ROOT Hips
{
	OFFSET 0.000000 71.427986 0.000000
	CHANNELS 6 Xposition Yposition Zposition Xrotation Yrotation Zrotation
	JOINT Pelvis
	{
		OFFSET 0.000000 0.000000 0.000000
		CHANNELS 3 Xrotation Yrotation Zrotation
		JOINT LeftUpLeg
		{
			OFFSET 6.797100 -2.508499 -1.318700
			CHANNELS 3 Xrotation Yrotation Zrotation
			JOINT LeftLeg
			{
				OFFSET 0.069008 -29.241863 0.690200
				CHANNELS 3 Xrotation Yrotation Zrotation
				JOINT LeftFoot
				{
					OFFSET -0.069008 -29.568123 -0.266800
					CHANNELS 3 Xrotation Yrotation Zrotation
					JOINT LeftToeBase
					{
						OFFSET 3.145500 -8.631000 16.059900
						CHANNELS 3 Xrotation Yrotation Zrotation
						End Site
						{
							OFFSET 0.000000 18.501587 0.000000
						}
					}
				}
			}
			JOINT Left_ShortSleeve
			{
				OFFSET 0.265923 -10.480953 1.153800
				CHANNELS 3 Xrotation Yrotation Zrotation
				End Site
				{
					OFFSET 1.725763 19.823879 0.000000
				}
			}
		}
		JOINT RightUpLeg
		{
			OFFSET -6.797100 -2.508499 -1.318700
			CHANNELS 3 Xrotation Yrotation Zrotation
			JOINT RightLeg
			{
				OFFSET -0.082453 -29.241932 0.688000
				CHANNELS 3 Xrotation Yrotation Zrotation
				JOINT RightFoot
				{
					OFFSET 0.082453 -29.568058 -0.264600
					CHANNELS 3 Xrotation Yrotation Zrotation
					JOINT RightToeBase
					{
						OFFSET -3.115300 -8.682800 16.113400
						CHANNELS 3 Xrotation Yrotation Zrotation
						End Site
						{
							OFFSET 0.000000 18.567114 0.000000
						}
					}
				}
			}
			JOINT Right_ShortSleeve
			{
				OFFSET -0.265923 -10.480953 1.153800
				CHANNELS 3 Xrotation Yrotation Zrotation
				End Site
				{
					OFFSET -1.725766 19.823910 0.000000
				}
			}
		}
	}
	JOINT Spine
	{
		OFFSET 0.000000 13.368103 0.470500
		CHANNELS 3 Xrotation Yrotation Zrotation
		JOINT Spine1
		{
			OFFSET 0.147000 13.837402 0.538800
			CHANNELS 3 Xrotation Yrotation Zrotation
			JOINT Spine2
			{
				OFFSET 0.168000 16.242897 -1.435500
				CHANNELS 3 Xrotation Yrotation Zrotation
				JOINT Neck
				{
					OFFSET 0.217200 18.631500 -1.679100
					CHANNELS 3 Xrotation Yrotation Zrotation
					JOINT Head
					{
						OFFSET 0.000000 6.599396 1.385900
						CHANNELS 3 Xrotation Yrotation Zrotation
						JOINT Hat
						{
							OFFSET -0.532200 27.220596 -10.096100
							CHANNELS 3 Xrotation Yrotation Zrotation
							End Site
							{
								OFFSET 0.000000 22.029861 0.000000
							}
						}
						JOINT HairD
						{
							OFFSET -10.777400 17.437393 -1.325900
							CHANNELS 3 Xrotation Yrotation Zrotation
							JOINT HairD1
							{
								OFFSET -3.290299 -11.051193 1.062200
								CHANNELS 3 Xrotation Yrotation Zrotation
								End Site
								{
									OFFSET 0.000000 11.579437 0.000000
								}
							}
						}
						JOINT HairB
						{
							OFFSET -10.777400 17.437393 1.467900
							CHANNELS 3 Xrotation Yrotation Zrotation
							JOINT HairB1
							{
								OFFSET -1.561200 -12.956299 3.590200
								CHANNELS 3 Xrotation Yrotation Zrotation
								End Site
								{
									OFFSET 0.000000 13.534866 0.000000
								}
							}
						}
						JOINT HairA
						{
							OFFSET 9.713100 17.437393 1.467900
							CHANNELS 3 Xrotation Yrotation Zrotation
							JOINT HairA1
							{
								OFFSET 1.561200 -12.956299 3.590200
								CHANNELS 3 Xrotation Yrotation Zrotation
								End Site
								{
									OFFSET 0.000000 13.534866 0.000000
								}
							}
						}
						JOINT HairC
						{
							OFFSET 9.713100 17.437393 -1.325900
							CHANNELS 3 Xrotation Yrotation Zrotation
							JOINT HairC1
							{
								OFFSET 3.290300 -11.051193 1.062200
								CHANNELS 3 Xrotation Yrotation Zrotation
								End Site
								{
									OFFSET 0.000000 11.579437 0.000000
								}
							}
						}
					}
				}
				JOINT LeftShoulder
				{
					OFFSET 5.101800 15.108002 -2.763700
					CHANNELS 3 Xrotation Yrotation Zrotation
					JOINT LeftArm
					{
						OFFSET 9.825497 2.506317 -1.597400
						CHANNELS 3 Xrotation Yrotation Zrotation
						JOINT LeftForeArm
						{
							OFFSET 21.966244 0.000000 0.000000
							CHANNELS 3 Xrotation Yrotation Zrotation
							JOINT LeftHand
							{
								OFFSET 33.879036 0.000000 0.000000
								CHANNELS 3 Xrotation Yrotation Zrotation
								JOINT LeftHandThumb1
								{
									OFFSET 6.715286 -2.359680 3.363841
									CHANNELS 3 Xrotation Yrotation Zrotation
									JOINT LeftHandThumb2
									{
										OFFSET 2.507072 -1.447464 1.447461
										CHANNELS 3 Xrotation Yrotation Zrotation
										JOINT LeftHandThumb3
										{
											OFFSET 2.898338 -1.673355 1.673357
											CHANNELS 3 Xrotation Yrotation Zrotation
											End Site
											{
												OFFSET -0.295959 3.727692 -0.131651
											}
										}
									}
								}
								JOINT LeftHandIndex1
								{
									OFFSET 14.190811 -0.254547 3.840278
									CHANNELS 3 Xrotation Yrotation Zrotation
									JOINT LeftHandIndex2
									{
										OFFSET 3.551727 0.000000 -0.000000
										CHANNELS 3 Xrotation Yrotation Zrotation
										JOINT LeftHandIndex3
										{
											OFFSET 2.894196 0.000000 0.000000
											CHANNELS 3 Xrotation Yrotation Zrotation
											End Site
											{
												OFFSET -1.000603 2.690872 0.366626
											}
										}
									}
								}
								JOINT LeftHandMiddle1
								{
									OFFSET 13.776489 0.000000 0.000000
									CHANNELS 3 Xrotation Yrotation Zrotation
									JOINT LeftHandMiddle2
									{
										OFFSET 3.438232 0.000000 0.000000
										CHANNELS 3 Xrotation Yrotation Zrotation
										JOINT LeftHandMiddle3
										{
											OFFSET 3.691551 0.000000 0.000000
											CHANNELS 3 Xrotation Yrotation Zrotation
											End Site
											{
												OFFSET -1.082298 3.499527 0.457670
											}
										}
									}
								}
								JOINT LeftHandRing1
								{
									OFFSET 13.966164 -0.268127 -3.067488
									CHANNELS 3 Xrotation Yrotation Zrotation
									JOINT LeftHandRing2
									{
										OFFSET 3.162567 0.000000 0.000000
										CHANNELS 3 Xrotation Yrotation Zrotation
										JOINT LeftHandRing3
										{
											OFFSET 3.324348 0.000000 0.000000
											CHANNELS 3 Xrotation Yrotation Zrotation
											End Site
											{
												OFFSET -0.861900 3.184998 0.405154
											}
										}
									}
								}
								JOINT LeftHandPinky1
								{
									OFFSET 13.131393 -0.168503 -5.746925
									CHANNELS 3 Xrotation Yrotation Zrotation
									JOINT LeftHandPinky2
									{
										OFFSET 2.849182 0.000000 0.000000
										CHANNELS 3 Xrotation Yrotation Zrotation
										JOINT LeftHandPinky3
										{
											OFFSET 2.805038 0.000000 0.000000
											CHANNELS 3 Xrotation Yrotation Zrotation
											End Site
											{
												OFFSET -0.882500 2.642609 0.325652
											}
										}
									}
								}
							}
							JOINT Left_Sleeve
							{
								OFFSET 6.592125 -0.646545 0.805568
								CHANNELS 3 Xrotation Yrotation Zrotation
								End Site
								{
									OFFSET -0.000179 20.275787 -0.000000
								}
							}
						}
					}
				}
				JOINT RightShoulder
				{
					OFFSET -5.731700 15.108002 -2.763700
					CHANNELS 3 Xrotation Yrotation Zrotation
					JOINT RightArm
					{
						OFFSET -9.825497 2.506317 -1.597400
						CHANNELS 3 Xrotation Yrotation Zrotation
						JOINT RightForeArm
						{
							OFFSET -21.966242 0.000000 0.000000
							CHANNELS 3 Xrotation Yrotation Zrotation
							JOINT RightHand
							{
								OFFSET -33.879032 0.000000 0.000000
								CHANNELS 3 Xrotation Yrotation Zrotation
								JOINT RightHandThumb1
								{
									OFFSET -6.715286 -2.359680 3.363841
									CHANNELS 3 Xrotation Yrotation Zrotation
									JOINT RightHandThumb2
									{
										OFFSET -2.507072 -1.447464 1.447461
										CHANNELS 3 Xrotation Yrotation Zrotation
										JOINT RightHandThumb3
										{
											OFFSET -2.898338 -1.673355 1.673357
											CHANNELS 3 Xrotation Yrotation Zrotation
											End Site
											{
												OFFSET 0.295959 3.727692 -0.131651
											}
										}
									}
								}
								JOINT RightHandIndex1
								{
									OFFSET -14.190811 -0.254547 3.840278
									CHANNELS 3 Xrotation Yrotation Zrotation
									JOINT RightHandIndex2
									{
										OFFSET -3.551727 0.000000 -0.000000
										CHANNELS 3 Xrotation Yrotation Zrotation
										JOINT RightHandIndex3
										{
											OFFSET -2.894196 0.000000 0.000000
											CHANNELS 3 Xrotation Yrotation Zrotation
											End Site
											{
												OFFSET 1.000603 2.690872 0.366626
											}
										}
									}
								}
								JOINT RightHandMiddle1
								{
									OFFSET -13.776489 0.000000 0.000000
									CHANNELS 3 Xrotation Yrotation Zrotation
									JOINT RightHandMiddle2
									{
										OFFSET -3.438232 0.000000 0.000000
										CHANNELS 3 Xrotation Yrotation Zrotation
										JOINT RightHandMiddle3
										{
											OFFSET -3.691551 0.000000 0.000000
											CHANNELS 3 Xrotation Yrotation Zrotation
											End Site
											{
												OFFSET 1.082298 3.499527 0.457670
											}
										}
									}
								}
								JOINT RightHandRing1
								{
									OFFSET -13.966164 -0.268127 -3.067488
									CHANNELS 3 Xrotation Yrotation Zrotation
									JOINT RightHandRing2
									{
										OFFSET -3.162567 0.000000 0.000000
										CHANNELS 3 Xrotation Yrotation Zrotation
										JOINT RightHandRing3
										{
											OFFSET -3.324348 0.000000 0.000000
											CHANNELS 3 Xrotation Yrotation Zrotation
											End Site
											{
												OFFSET 0.861900 3.184998 0.405154
											}
										}
									}
								}
								JOINT RightHandPinky1
								{
									OFFSET -13.131393 -0.168503 -5.746925
									CHANNELS 3 Xrotation Yrotation Zrotation
									JOINT RightHandPinky2
									{
										OFFSET -2.849182 0.000000 0.000000
										CHANNELS 3 Xrotation Yrotation Zrotation
										JOINT RightHandPinky3
										{
											OFFSET -2.805038 0.000000 0.000000
											CHANNELS 3 Xrotation Yrotation Zrotation
											End Site
											{
												OFFSET 0.882500 2.642609 0.325652
											}
										}
									}
								}
							}
							JOINT Right_Sleeve
							{
								OFFSET -6.592125 -0.646545 0.805568
								CHANNELS 3 Xrotation Yrotation Zrotation
								End Site
								{
									OFFSET 0.000179 20.275787 -0.000000
								}
							}
						}
					}
				}
				JOINT Bind_Right_JacketString
				{
					OFFSET -3.534800 11.969597 7.200700
					CHANNELS 3 Xrotation Yrotation Zrotation
					JOINT Bind_Right_JacketString1
					{
						OFFSET -0.319900 -6.102600 2.794100
						CHANNELS 3 Xrotation Yrotation Zrotation
						End Site
						{
							OFFSET 0.000000 6.719452 0.000000
						}
					}
				}
				JOINT Bind_Left_JacketString
				{
					OFFSET 2.904800 11.969597 7.200700
					CHANNELS 3 Xrotation Yrotation Zrotation
					JOINT Bind_Left_JacketString1
					{
						OFFSET 0.364800 -5.904503 3.186800
						CHANNELS 3 Xrotation Yrotation Zrotation
						End Site
						{
							OFFSET 0.000000 6.719513 0.000000
						}
					}
				}
				JOINT HairE
				{
					OFFSET 5.915200 17.612701 -11.592200
					CHANNELS 3 Xrotation Yrotation Zrotation
					JOINT HairE1
					{
						OFFSET 0.289200 -7.171898 -1.284500
						CHANNELS 3 Xrotation Yrotation Zrotation
						End Site
						{
							OFFSET 0.000000 7.291756 0.000000
						}
					}
				}
				JOINT HairF
				{
					OFFSET -0.864800 17.612701 -11.592200
					CHANNELS 3 Xrotation Yrotation Zrotation
					JOINT HairF1
					{
						OFFSET 0.000000 -14.087097 -2.127501
						CHANNELS 3 Xrotation Yrotation Zrotation
						End Site
						{
							OFFSET 0.000000 14.246841 0.000000
						}
					}
				}
				JOINT HairG
				{
					OFFSET -8.087700 17.612701 -11.592200
					CHANNELS 3 Xrotation Yrotation Zrotation
					JOINT HairG1
					{
						OFFSET -0.293600 -6.081398 -0.910100
						CHANNELS 3 Xrotation Yrotation Zrotation
						End Site
						{
							OFFSET 0.000000 6.156120 0.000000
						}
					}
				}
			}
		}
	}
	JOINT Pouch
	{
		OFFSET 0.000000 4.394501 10.847300
		CHANNELS 3 Xrotation Yrotation Zrotation
		End Site
		{
			OFFSET 0.000000 21.880577 0.000000
		}
	}
	JOINT Bag
	{
		OFFSET -13.229000 4.813004 -0.593300
		CHANNELS 3 Xrotation Yrotation Zrotation
		End Site
		{
			OFFSET 0.000000 21.880577 0.000000
		}
	}
	JOINT OccupyGuyFacialAnim_Joint
	{
		OFFSET 1.000000 -70.206398 -1.655000
		CHANNELS 3 Xrotation Yrotation Zrotation
		End Site
		{
			OFFSET 0.000000 21.880577 0.000000
		}
	}
}
MOTION
Frames: 4
Frame Time: 0.033333
2.626406 62.172775 -3.308855 8.494028 -25.541356 1.266342 -0.000000 0.000000 -0.000000 -55.529749 33.996747 22.684680 12.158059 -36.402166 -0.680298 25.045923 -1.327654 -6.193820 -0.000000 -0.000002 0.000000 -0.000003 -0.000001 0.000000 -35.927540 -40.094245 -38.963456 44.602170 -13.909675 -8.577383 -13.450159 -3.903193 21.730573 -0.000000 0.000000 0.000000 0.000001 0.000001 0.000000 6.132777 10.049087 -2.901333 -0.060167 3.231765 2.212471 -1.076844 3.114649 0.981049 -2.660759 -3.064321 3.035440 7.845710 -8.747888 -6.204158 0.000001 -0.000002 0.000001 0.000001 -0.000002 0.000001 0.000001 -0.000002 0.000001 0.000001 -0.000002 0.000000 0.000001 -0.000001 0.000000 0.000001 -0.000002 0.000000 0.000001 -0.000001 0.000000 0.000001 -0.000002 0.000001 0.000001 -0.000002 0.000001 -0.548478 -1.659255 -7.391645 -11.823427 -2.418731 -54.684663 -11.049679 -35.666565 -3.952061 -1.454450 -13.068771 0.878221 4.766482 -0.870670 -14.442457 15.732340 12.674836 8.828577 0.000003 -0.000002 -0.000001 -3.610968 -7.817582 -81.262681 0.005155 -4.388533 -67.459033 0.000000 0.000001 -0.000002 -5.483673 2.419550 -86.651010 -0.066828 -4.897363 -76.605380 -0.000001 0.000002 0.000003 -4.480823 3.914133 -90.412519 -1.097267 -0.675692 -62.310730 -0.000003 0.000002 0.000002 -8.868641 8.263641 -85.753865 -0.047912 -0.066875 -74.105640 0.000001 0.000001 -0.000001 0.000002 0.000001 -0.000001 1.445016 11.873679 4.136894 -72.878385 36.205586 40.238058 -47.067496 15.400861 14.086047 17.253497 58.385181 -30.775398 24.918340 -21.323374 30.343044 9.041908 8.262099 -18.001795 0.000001 -0.000001 -0.000001 -0.070689 -3.035208 61.424199 0.006464 4.395147 66.609186 -0.000002 0.000003 0.000001 -1.235403 -0.119469 68.274270 -0.077291 4.902840 84.501885 0.000000 0.000000 -0.000001 0.883164 -4.613424 79.192949 -0.717777 1.136489 73.255773 -0.000002 -0.000000 -0.000004 -3.944531 0.100000 86.764781 -0.029776 0.060145 54.415147 0.000000 -0.000001 -0.000005 -0.000000 -0.000002 -0.000000 0.000001 0.000000 -0.000000 0.000001 0.000000 0.000000 0.000001 0.000000 -0.000000 0.000001 0.000000 -0.000000 0.000001 0.000000 -0.000000 0.000001 0.000000 0.000000 0.000001 0.000000 -0.000000 0.000001 0.000000 -0.000000 0.000001 0.000000 -0.000000 0.000001 0.000000 0.000000 -0.000000 0.000000 -0.000000 -0.000000 0.000000 -0.000000 -0.000000 0.000000 -0.000000 
2.871038 62.045860 -3.322210 7.884075 -23.479381 0.790509 -0.000000 0.000000 -0.000000 -54.783554 34.303457 21.151875 11.730612 -38.007909 -0.874080 25.698921 -1.320989 -5.862255 0.000000 -0.000002 0.000000 -0.000002 0.000000 -0.000000 -38.510700 -41.913073 -42.208073 46.460152 -13.469529 -8.632277 -14.140284 -3.529364 19.529842 -0.000000 -0.000000 0.000000 0.000000 -0.000001 -0.000002 6.569150 11.336023 -3.192339 0.097520 3.601903 2.232972 -0.920699 3.483865 1.001541 -1.989215 -4.361518 3.676868 7.703117 -11.966329 -5.840700 -0.000002 -0.000001 0.000000 -0.000002 -0.000001 0.000000 -0.000002 -0.000001 0.000001 -0.000002 -0.000001 0.000000 -0.000004 -0.000001 0.000001 -0.000002 -0.000001 0.000000 -0.000004 -0.000001 0.000001 -0.000002 -0.000001 0.000000 -0.000002 -0.000001 0.000000 -0.567253 -1.768446 -7.358809 -10.726384 -5.272702 -56.273246 -11.802628 -36.256191 -4.028371 -1.436566 -13.706021 -0.549305 4.766477 -0.870668 -14.442461 15.732338 12.674827 8.828576 0.000002 -0.000004 0.000002 -3.610970 -7.817580 -81.262681 0.005153 -4.388531 -67.459033 -0.000003 0.000000 -0.000000 -5.483675 2.419550 -86.651010 -0.066827 -4.897361 -76.605387 0.000001 0.000002 0.000001 -4.480828 3.914135 -90.412519 -1.097262 -0.675694 -62.310730 -0.000002 0.000003 -0.000003 -8.868646 8.263643 -85.753865 -0.047913 -0.066875 -74.105640 -0.000004 -0.000003 0.000002 -0.000000 -0.000003 -0.000002 1.102537 13.045404 7.466018 -68.204794 38.612340 41.139537 -56.641126 8.321312 11.601977 11.070630 55.439498 -21.595608 24.918342 -21.323376 30.343047 9.041908 8.262104 -18.001804 -0.000000 0.000000 0.000001 -0.070694 -3.035210 61.424192 0.006461 4.395144 66.609186 -0.000002 -0.000000 0.000004 -1.235403 -0.119469 68.274277 -0.077290 4.902842 84.501885 0.000001 0.000001 -0.000002 0.883167 -4.613429 79.192949 -0.717779 1.136486 73.255787 0.000003 -0.000002 -0.000003 -3.944535 0.099999 86.764781 -0.029775 0.060148 54.415151 -0.000001 -0.000000 0.000000 -0.000000 -0.000000 0.000000 -0.000001 0.000000 -0.000000 -0.000001 -0.000000 -0.000000 -0.000001 0.000000 -0.000000 -0.000001 0.000000 -0.000000 -0.000001 0.000000 -0.000000 -0.000001 -0.000000 -0.000000 -0.000001 0.000000 -0.000000 -0.000001 0.000000 -0.000000 -0.000001 0.000000 -0.000000 -0.000001 -0.000000 -0.000000 -0.000000 0.000000 -0.000000 -0.000000 0.000000 -0.000000 -0.000000 0.000000 -0.000000 
3.078211 61.886375 -3.322886 7.409013 -21.427198 0.424695 -0.000000 -0.000001 0.000000 -54.310382 34.529881 19.727379 11.754373 -39.564701 -1.017471 26.163885 -1.290351 -5.472662 -0.000000 0.000002 -0.000000 0.000001 -0.000001 0.000001 -41.201299 -43.463342 -45.626101 48.300335 -13.192885 -8.563074 -14.825195 -3.090953 17.405673 -0.000000 0.000000 0.000001 -0.000000 -0.000003 -0.000000 6.874125 12.718472 -3.545899 0.276931 3.999676 2.247893 -0.742777 3.880084 1.014838 -1.255990 -5.545923 4.288222 7.900184 -14.943752 -5.259404 -0.000001 0.000001 -0.000000 -0.000001 0.000001 -0.000000 -0.000001 0.000001 0.000000 -0.000001 0.000001 -0.000000 -0.000001 -0.000001 -0.000000 -0.000001 0.000001 -0.000000 -0.000001 -0.000001 -0.000000 -0.000001 0.000001 -0.000000 -0.000001 0.000001 -0.000000 -0.581623 -1.494231 -7.557364 -8.987089 -8.434066 -57.866264 -11.486273 -36.872858 -3.939503 -1.430053 -14.312346 -1.853397 4.766483 -0.870663 -14.442461 15.732342 12.674832 8.828581 -0.000000 -0.000000 -0.000000 -3.610971 -7.817580 -81.262681 0.005152 -4.388531 -67.459033 0.000000 0.000001 -0.000002 -5.483677 2.419554 -86.651004 -0.066828 -4.897363 -76.605380 0.000000 0.000002 0.000003 -4.480828 3.914136 -90.412519 -1.097265 -0.675694 -62.310730 -0.000003 0.000002 -0.000002 -8.868647 8.263642 -85.753865 -0.047917 -0.066874 -74.105640 -0.000001 0.000001 -0.000001 0.000001 -0.000000 -0.000002 0.717830 14.401541 10.847896 -60.597582 38.476460 39.913652 -62.897498 4.855188 10.309123 2.963446 45.961200 -11.615558 24.918344 -21.323379 30.343047 9.041911 8.262102 -18.001800 0.000000 -0.000000 0.000006 -0.070690 -3.035213 61.424192 0.006459 4.395148 66.609186 0.000001 -0.000001 0.000002 -1.235406 -0.119467 68.274270 -0.077289 4.902836 84.501891 0.000002 0.000000 -0.000001 0.883161 -4.613427 79.192943 -0.717778 1.136485 73.255780 0.000001 -0.000001 0.000001 -3.944534 0.099997 86.764774 -0.029778 0.060147 54.415144 0.000002 -0.000001 -0.000001 0.000001 0.000000 0.000002 0.000001 -0.000000 0.000000 0.000001 0.000000 -0.000000 0.000001 -0.000000 -0.000000 0.000001 -0.000000 -0.000000 0.000001 -0.000000 0.000000 0.000001 0.000000 -0.000000 0.000001 -0.000000 -0.000000 0.000001 -0.000000 -0.000000 0.000001 -0.000000 0.000000 0.000001 0.000000 -0.000000 -0.000000 -0.000001 0.000000 -0.000000 -0.000001 0.000000 -0.000000 -0.000001 0.000000 
3.265911 61.683090 -3.312957 7.128462 -19.253098 0.139971 0.000000 -0.000000 0.000000 -54.150204 34.665809 18.316163 12.166933 -41.142748 -1.127133 26.513536 -1.237554 -5.003244 -0.000000 0.000000 -0.000000 0.000001 0.000000 -0.000001 -43.820960 -44.763339 -48.979577 50.044243 -13.255388 -8.409384 -15.441794 -2.636775 15.575288 0.000000 0.000000 0.000000 0.000002 0.000001 -0.000002 7.093514 14.063125 -3.949539 0.454786 4.387969 2.235882 -0.567075 4.267227 0.999961 -0.584696 -6.606565 4.926479 8.413688 -17.556342 -4.548401 0.000001 -0.000000 -0.000000 0.000001 -0.000000 -0.000000 0.000001 -0.000000 -0.000000 0.000001 -0.000000 -0.000000 0.000001 0.000000 0.000000 0.000001 -0.000000 -0.000000 0.000001 0.000000 0.000000 0.000001 -0.000000 -0.000000 0.000001 -0.000000 -0.000000 -0.586591 -0.794255 -7.900090 -6.567644 -11.697969 -59.269677 -10.549057 -37.490645 -3.750088 -1.431396 -14.805311 -2.896332 4.766483 -0.870669 -14.442457 15.732337 12.674831 8.828579 0.000000 0.000001 -0.000000 -3.610968 -7.817588 -81.262681 0.005153 -4.388531 -67.459033 -0.000001 0.000002 0.000002 -5.483674 2.419543 -86.651004 -0.066828 -4.897364 -76.605380 -0.000000 -0.000000 0.000006 -4.480822 3.914135 -90.412519 -1.097261 -0.675693 -62.310730 -0.000000 0.000001 -0.000003 -8.868643 8.263638 -85.753865 -0.047913 -0.066876 -74.105633 -0.000001 0.000001 0.000003 0.000001 0.000001 -0.000001 0.361182 16.515951 13.824595 -50.846107 35.907165 37.539632 -66.954794 2.121101 10.228930 -3.158125 27.322504 -3.840443 24.918344 -21.323378 30.343040 9.041911 8.262101 -18.001799 -0.000000 -0.000000 0.000003 -0.070693 -3.035212 61.424199 0.006459 4.395146 66.609186 -0.000001 -0.000002 -0.000000 -1.235405 -0.119470 68.274270 -0.077290 4.902834 84.501891 0.000002 0.000001 0.000005 0.883164 -4.613429 79.192949 -0.717775 1.136483 73.255787 -0.000001 -0.000002 -0.000000 -3.944531 0.099997 86.764788 -0.029773 0.060145 54.415140 0.000002 -0.000001 -0.000001 0.000001 0.000001 0.000001 -0.000000 0.000000 -0.000000 -0.000000 0.000000 -0.000000 -0.000000 0.000000 -0.000000 -0.000000 0.000000 -0.000000 -0.000000 0.000000 -0.000000 -0.000000 0.000000 -0.000000 -0.000000 0.000000 -0.000000 -0.000000 0.000000 -0.000000 -0.000000 0.000000 -0.000000 -0.000000 0.000000 -0.000000 0.000000 -0.000000 0.000000 0.000000 -0.000000 0.000000 0.000000 -0.000000 0.000000 
